# xmcd CD database file
#
# Track frame offsets:
#	150
#	13575
#	34602
#	59219
#	82097
#	95930
#	109632
#	133622
#	155121
#	175722
#	195685
#
# Disc length: 2771 seconds
#
# Revision: 0
# Processed by: cddbd v1.5.1PL0 Copyright (c) Steve Scherf et al.
# Submitted via: cdripper 1.0.7
#
DISCID=990ad10b
DTITLE=Winston Gibb and the Hotdogs - Hot Off the Grill
DYEAR=1997
DGENRE=Blues
TTITLE0=Shot of the Blues
TTITLE1=Break Free
TTITLE2=Dance Away
TTITLE3=Please Mr. Moon
TTITLE4=You Got A Thing For Me
TTITLE5=No Fun At All
TTITLE6=I Think You Knew
TTITLE7=Money
TTITLE8=Never Before
TTITLE9=Cast A Spell
TTITLE10=Whinin' Time
EXTD=YEAR: 1997
EXTT0=
EXTT1=
EXTT2=
EXTT3=
EXTT4=
EXTT5=
EXTT6=
EXTT7=
EXTT8=
EXTT9=
EXTT10=
PLAYORDER=
